<!DOCTYPE svg PUBLIC "-//W3C//DTD SVG 1.1//EN" "http://www.w3.org/Graphics/SVG/1.1/DTD/svg11.dtd">
<!-- Uploaded to: SVG Repo, www.svgrepo.com, Transformed by: SVG Repo Mixer Tools -->
<svg version="1.1" id="Uploaded to svgrepo.com" xmlns="http://www.w3.org/2000/svg" xmlns:xlink="http://www.w3.org/1999/xlink" width="800px" height="800px" viewBox="-3.2 -3.2 38.40 38.40" xml:space="preserve" fill="#7afff0" stroke="#7afff0" stroke-width="0.768">
<g id="SVGRepo_bgCarrier" stroke-width="0"/>
<g id="SVGRepo_tracerCarrier" stroke-linecap="round" stroke-linejoin="round" stroke="#d560d7" stroke-width="1.152"> <style type="text/css"> .open_een{fill:#ffffff;} </style> <g> <g> <path class="open_een" d="M5.5,15h21c1.93,0,3.5-1.57,3.5-3.5S28.43,8,26.5,8h-18C8.224,8,8,8.224,8,8.5S8.224,9,8.5,9h18 c1.378,0,2.5,1.122,2.5,2.5S27.878,14,26.5,14h-21C4.122,14,3,12.878,3,11.5S4.122,9,5.5,9C5.776,9,6,8.776,6,8.5S5.776,8,5.5,8 C3.57,8,2,9.57,2,11.5S3.57,15,5.5,15z"/> <path class="open_een" d="M26.5,17h-18C8.224,17,8,17.224,8,17.5S8.224,18,8.5,18h18c1.378,0,2.5,1.122,2.5,2.5S27.878,23,26.5,23 h-21C4.122,23,3,21.878,3,20.5S4.122,18,5.5,18C5.776,18,6,17.776,6,17.5S5.776,17,5.5,17C3.57,17,2,18.57,2,20.5S3.57,24,5.5,24 h21c1.93,0,3.5-1.57,3.5-3.5S28.43,17,26.5,17z"/> </g> <g> <path class="open_een" d="M5.5,15h21c1.93,0,3.5-1.57,3.5-3.5S28.43,8,26.5,8h-18C8.224,8,8,8.224,8,8.5S8.224,9,8.5,9h18 c1.378,0,2.5,1.122,2.5,2.5S27.878,14,26.5,14h-21C4.122,14,3,12.878,3,11.5S4.122,9,5.5,9C5.776,9,6,8.776,6,8.5S5.776,8,5.5,8 C3.57,8,2,9.57,2,11.5S3.57,15,5.5,15z"/> <path class="open_een" d="M26.5,17h-18C8.224,17,8,17.224,8,17.5S8.224,18,8.5,18h18c1.378,0,2.5,1.122,2.5,2.5S27.878,23,26.5,23 h-21C4.122,23,3,21.878,3,20.5S4.122,18,5.5,18C5.776,18,6,17.776,6,17.5S5.776,17,5.5,17C3.57,17,2,18.57,2,20.5S3.57,24,5.5,24 h21c1.93,0,3.5-1.57,3.5-3.5S28.43,17,26.5,17z"/> </g> </g> </g>
<g id="SVGRepo_iconCarrier"> <style type="text/css"> .open_een{fill:#ffffff;} </style> <g> <g> <path class="open_een" d="M5.5,15h21c1.93,0,3.5-1.57,3.5-3.5S28.43,8,26.5,8h-18C8.224,8,8,8.224,8,8.5S8.224,9,8.5,9h18 c1.378,0,2.5,1.122,2.5,2.5S27.878,14,26.5,14h-21C4.122,14,3,12.878,3,11.5S4.122,9,5.5,9C5.776,9,6,8.776,6,8.5S5.776,8,5.5,8 C3.57,8,2,9.57,2,11.5S3.57,15,5.5,15z"/> <path class="open_een" d="M26.5,17h-18C8.224,17,8,17.224,8,17.5S8.224,18,8.5,18h18c1.378,0,2.5,1.122,2.5,2.5S27.878,23,26.5,23 h-21C4.122,23,3,21.878,3,20.5S4.122,18,5.5,18C5.776,18,6,17.776,6,17.5S5.776,17,5.5,17C3.57,17,2,18.57,2,20.5S3.57,24,5.5,24 h21c1.93,0,3.5-1.57,3.5-3.5S28.43,17,26.5,17z"/> </g> <g> <path class="open_een" d="M5.5,15h21c1.93,0,3.5-1.57,3.5-3.5S28.43,8,26.5,8h-18C8.224,8,8,8.224,8,8.5S8.224,9,8.5,9h18 c1.378,0,2.5,1.122,2.5,2.5S27.878,14,26.5,14h-21C4.122,14,3,12.878,3,11.5S4.122,9,5.5,9C5.776,9,6,8.776,6,8.5S5.776,8,5.5,8 C3.57,8,2,9.57,2,11.5S3.57,15,5.5,15z"/> <path class="open_een" d="M26.5,17h-18C8.224,17,8,17.224,8,17.5S8.224,18,8.5,18h18c1.378,0,2.5,1.122,2.5,2.5S27.878,23,26.5,23 h-21C4.122,23,3,21.878,3,20.5S4.122,18,5.5,18C5.776,18,6,17.776,6,17.5S5.776,17,5.5,17C3.57,17,2,18.57,2,20.5S3.57,24,5.5,24 h21c1.93,0,3.5-1.57,3.5-3.5S28.43,17,26.5,17z"/> </g> </g> </g>
</svg>