<svg height="34" width="34" version="1.1" id="Layer_1" xmlns="http://www.w3.org/2000/svg" viewBox="0 0 496 496" xml:space="preserve" fill="#000"><g id="SVGRepo_iconCarrier"><path style="fill:#c3d7dd" d="M128.4 372h-4c-2.4 0-4-1.6-4-4s1.6-4 4-4c4.8 0 9.6 0 14.4-.8 2.4 0 4 1.6 4 3.2 0 2.4-1.6 4-3.2 4-3.2 1.6-7.2 1.6-11.2 1.6zm-19.2-1.6c-5.6-.8-11.2-2.4-16-3.2-2.4-.8-3.2-2.4-2.4-4.8.8-1.6 2.4-3.2 4.8-2.4 4.8 1.6 9.6 2.4 14.4 3.2 2.4 0 3.2 2.4 3.2 4-.8 1.6-2.4 3.2-4 3.2zm45.6-1.6c-1.6 0-3.2-.8-4-3.2-.8-2.4.8-4 3.2-4.8 4.8-.8 9.6-2.4 14.4-4 1.6-.8 4 0 4.8 2.4.8 1.6 0 4-2.4 4.8-4.8 1.6-9.6 3.2-15.2 4.8h-.8zm-74.4-7.2h-1.6c-4.8-2.4-9.6-4.8-13.6-7.2-1.6-.8-2.4-3.2-1.6-5.6.8-1.6 3.2-2.4 5.6-1.6 4 2.4 8.8 4.8 12.8 6.4 1.6.8 3.2 3.2 1.6 4.8-.8 2.4-2.4 3.2-3.2 3.2zm103.2-3.2c-1.6 0-2.4-.8-3.2-2.4s0-4 1.6-4.8c4.8-2.4 8.8-4.8 12.8-8 1.6-.8 4-.8 5.6.8.8 1.6.8 4-.8 5.6-4 3.2-8.8 5.6-13.6 8-1.6.8-2.4.8-2.4.8zM54 346.4c-.8 0-1.6 0-2.4-.8-4-3.2-8-6.4-12-10.4-1.6-1.6-1.6-4 0-5.6s4-1.6 5.6 0c4 3.2 7.2 6.4 11.2 9.6 1.6 1.6 1.6 4 .8 5.6-.8.8-2.4 1.6-3.2 1.6zm154.4-4.8c-.8 0-2.4-.8-3.2-1.6-1.6-1.6-1.6-4 0-5.6 4-3.2 7.2-7.2 10.4-10.4 1.6-1.6 4-1.6 5.6 0s1.6 4 0 5.6c-3.2 4-7.2 8-11.2 11.2 0 0-.8.8-1.6.8zm-176-16.8c-.8 0-2.4-.8-3.2-1.6-3.2-4-6.4-8.8-8.8-12.8-.8-1.6-.8-4 1.6-5.6 2.4-.8 4.8-.8 5.6 1.6 2.4 4 5.6 8 8 12 1.6 1.6.8 4-.8 5.6-.8 0-1.6.8-2.4.8zm196-6.4c-.8 0-1.6 0-2.4-.8-1.6-.8-2.4-3.2-.8-5.6 2.4-4 5.6-8 7.2-12.8.8-1.6 3.2-2.4 4.8-1.6s2.4 3.2 1.6 4.8c-2.4 4.8-4.8 9.6-8 13.6 0 1.6-1.6 2.4-2.4 2.4zm-211.2-20c-1.6 0-3.2-.8-3.2-2.4-2.4-4.8-4-9.6-4.8-15.2-.8-2.4.8-4 2.4-4.8 2.4-.8 4 .8 4.8 2.4 1.6 4.8 3.2 9.6 4.8 13.6.8 1.6 0 4-2.4 4.8 0 1.6-.8 1.6-1.6 1.6zm224.8-7.2h-1.6c-1.6-.8-3.2-3.2-2.4-4.8 1.6-4.8 3.2-9.6 4-14.4.8-2.4 2.4-3.2 4.8-3.2 2.4.8 3.2 2.4 3.2 4.8-.8 4.8-2.4 10.4-4 15.2-.8 1.6-2.4 2.4-4 2.4zM9.2 268.8c-1.6 0-3.2-1.6-4-3.2-.8-4.8-.8-9.6-1.6-14.4.8-2.4 2.4-3.2 4.8-3.2s4 .8 4 2.4c0 4.8.8 9.6.8 14.4 0 2.4-.8 4-4 4 .8 0 0 0 0 0zm239.2-7.2c-.8 0-.8 0 0 0-2.4 0-4-2.4-4-4v-15.2c0-2.4 1.6-4 4-4s4 1.6 4 4v15.2c-.8 2.4-2.4 4-4 4zM9.2 238.4s-.8 0 0 0c-2.4 0-4-2.4-4-4 .8-5.6 1.6-10.4 2.4-15.2.8-2.4 3.2-4 4.8-3.2 2.4.8 3.2 2.4 3.2 4.8-.8 4.8-2.4 9.6-2.4 14.4-.8 1.6-2.4 3.2-4 3.2zm237.6-7.2c-1.6 0-3.2-1.6-4-3.2-.8-4.8-2.4-9.6-3.2-14.4-.8-1.6.8-4 2.4-4.8 2.4-.8 4 .8 4.8 2.4 1.6 4.8 2.4 10.4 4 15.2 0 2.4-1.6 4-4 4.8zM16.4 208.8h-1.6c-1.6-.8-3.2-3.2-2.4-4.8 1.6-4.8 4-9.6 6.4-14.4.8-1.6 3.2-2.4 4.8-1.6 1.6.8 2.4 3.2 1.6 4.8-2.4 4-4 8.8-6.4 13.6 0 1.6-.8 2.4-2.4 2.4zm221.6-7.2c-1.6 0-3.2-.8-3.2-2.4-2.4-4.8-4.8-8.8-7.2-12.8-.8-1.6-.8-4 1.6-5.6 1.6-.8 4-.8 5.6 1.6 2.4 4.8 5.6 8.8 7.2 13.6.8 1.6 0 4-1.6 4.8-1.6.8-2.4.8-2.4.8zM30.8 182.4c-.8 0-1.6 0-2.4-.8-1.6-1.6-2.4-4-.8-5.6l9.6-12c1.6-1.6 4-1.6 5.6 0s1.6 4 0 5.6c-3.2 4-6.4 7.2-9.6 11.2 0 .8-1.6 1.6-2.4 1.6zm190.4-6.4c-.8 0-2.4-.8-3.2-1.6-3.2-4-6.4-7.2-9.6-11.2-1.6-1.6-1.6-4 0-5.6s4-1.6 5.6 0c4 4 7.2 7.2 10.4 11.2 1.6 1.6.8 4-.8 5.6 0 1.6-.8 1.6-2.4 1.6zM50.8 160c-.8 0-2.4-.8-3.2-1.6-1.6-1.6-.8-4 .8-5.6 4-3.2 8-6.4 12.8-9.6 1.6-.8 4-.8 5.6.8.8 1.6.8 4-.8 5.6-4 2.4-8 5.6-12 8.8-.8.8-1.6 1.6-3.2 1.6zm148.8-4.8c-.8 0-1.6 0-2.4-.8-4-3.2-8-5.6-12.8-8-1.6-.8-2.4-3.2-1.6-4.8.8-1.6 3.2-2.4 4.8-1.6 4.8 2.4 8.8 5.6 13.6 8.8 1.6 1.6 2.4 4 .8 5.6 0 0-1.6.8-2.4.8zm-123.2-12c-1.6 0-2.4-.8-3.2-2.4-.8-1.6 0-4 1.6-4.8 4.8-2.4 9.6-4 14.4-5.6 1.6-.8 4 .8 4.8 2.4.8 2.4-.8 4-2.4 4.8-4.8 1.6-9.6 3.2-13.6 5.6h-1.6zm96.8-3.2h-1.6l-14.4-4.8c-2.4-.8-3.2-2.4-2.4-4.8.8-2.4 2.4-3.2 4.8-2.4 4.8 1.6 10.4 3.2 15.2 4.8 1.6.8 3.2 3.2 2.4 4.8-1.6 1.6-2.4 2.4-4 2.4zm-67.2-6.4c-1.6 0-3.2-1.6-4-3.2 0-2.4.8-4 3.2-4.8 4.8-.8 10.4-1.6 15.2-1.6 1.6 0 4 1.6 4 3.2 0-1.6 1.6-3.2 4-3.2 5.6 0 10.4 0 16 .8 2.4 0 3.2 2.4 3.2 4 0 2.4-2.4 3.2-4 3.2-4.8-.8-9.6-.8-14.4-.8-1.6 0-3.2-1.6-4-3.2 0 1.6-1.6 3.2-3.2 3.2-5.6.8-11.2 1.6-16 2.4z"/><path style="fill:#c3d7dd" d="M368.4 372h-4c-2.4 0-4-1.6-4-4s1.6-4 4-4c4.8 0 9.6 0 14.4-.8 2.4 0 4 1.6 4 3.2 0 2.4-1.6 4-3.2 4-3.2 1.6-7.2 1.6-11.2 1.6zm-19.2-1.6c-5.6-.8-11.2-2.4-16-3.2-1.6-.8-3.2-2.4-2.4-4.8.8-1.6 2.4-3.2 4.8-2.4 4.8 1.6 9.6 2.4 14.4 3.2 2.4 0 3.2 2.4 3.2 4s-1.6 3.2-4 3.2zm45.6-1.6c-1.6 0-3.2-1.6-4-3.2-.8-2.4.8-4 3.2-4.8 4.8-.8 9.6-2.4 14.4-4 1.6-.8 4 0 4.8 2.4.8 1.6 0 4-2.4 4.8-4.8 1.6-10.4 3.2-15.2 4.8h-.8zm-74.4-7.2h-1.6c-4.8-2.4-9.6-4.8-13.6-7.2-1.6-.8-2.4-3.2-1.6-5.6.8-1.6 3.2-2.4 5.6-1.6 4 2.4 8.8 4.8 12.8 6.4 1.6.8 2.4 3.2 1.6 4.8-.8 2.4-1.6 3.2-3.2 3.2zm103.2-3.2c-1.6 0-2.4-.8-3.2-2.4-.8-1.6 0-4 1.6-4.8 4-2.4 8.8-4.8 12.8-8 1.6-.8 4-.8 5.6.8.8 1.6.8 4-.8 5.6-4 3.2-8.8 5.6-13.6 8-1.6.8-1.6.8-2.4.8zm-129.6-12c-.8 0-1.6 0-2.4-.8-4-3.2-8-6.4-12-10.4-1.6-1.6-1.6-4 0-5.6s4-1.6 5.6 0c3.2 3.2 7.2 6.4 11.2 9.6 1.6 1.6 1.6 4 .8 5.6-.8.8-1.6 1.6-3.2 1.6zm154.4-4.8c-.8 0-2.4-.8-3.2-1.6-1.6-1.6-1.6-4 0-5.6 4-3.2 7.2-7.2 10.4-10.4 1.6-1.6 4-1.6 5.6 0s1.6 4 0 5.6c-3.2 4-7.2 8-11.2 11.2 0 0-.8.8-1.6.8zm-175.2-16.8c-.8 0-2.4-.8-3.2-1.6-3.2-4-6.4-8.8-8.8-12.8-.8-1.6-.8-4 1.6-5.6 1.6-.8 4-.8 5.6 1.6 2.4 4 5.6 8 8 12 1.6 1.6.8 4-.8 5.6-.8 0-1.6.8-2.4.8zm195.2-6.4c-.8 0-1.6 0-2.4-.8-1.6-.8-2.4-3.2-.8-5.6 2.4-4 5.6-8 7.2-12.8.8-1.6 3.2-2.4 4.8-1.6 1.6.8 2.4 3.2 1.6 4.8-2.4 4.8-4.8 9.6-8 13.6 0 1.6-.8 2.4-2.4 2.4zm-210.4-20c-1.6 0-3.2-.8-3.2-2.4-2.4-4.8-4-9.6-4.8-15.2-.8-2.4.8-4 2.4-4.8 2.4-.8 4 .8 4.8 2.4 1.6 4.8 3.2 9.6 4.8 13.6.8 1.6 0 4-2.4 4.8-.8 1.6-1.6 1.6-1.6 1.6zm224-7.2h-1.6c-1.6-.8-3.2-3.2-2.4-4.8 1.6-4.8 3.2-9.6 4-14.4.8-2.4 2.4-3.2 4.8-3.2 2.4.8 3.2 2.4 3.2 4.8-.8 4.8-2.4 10.4-4 15.2-.8 1.6-2.4 2.4-4 2.4zm-232.8-22.4c-1.6 0-3.2-1.6-4-3.2-.8-4.8-.8-9.6-1.6-14.4 0-2.4 1.6-3.2 4-3.2s4 .8 4 2.4c0 4.8.8 9.6.8 14.4 1.6 2.4 0 4-3.2 4 .8 0 .8 0 0 0zm239.2-7.2c-2.4 0-4-2.4-4-4v-15.2c0-2.4 1.6-4 4-4s4 1.6 4 4v15.2c-.8 2.4-2.4 4-4 4zm-239.2-23.2c-2.4 0-4-2.4-4-4 .8-5.6 1.6-10.4 2.4-15.2.8-2.4 2.4-3.2 4.8-3.2 2.4.8 3.2 2.4 3.2 4.8-.8 4.8-2.4 9.6-2.4 14.4-.8 1.6-2.4 3.2-4 3.2zm237.6-7.2c-1.6 0-3.2-1.6-4-3.2-.8-4.8-2.4-9.6-3.2-14.4-.8-1.6.8-4 2.4-4.8 2.4-.8 4 .8 4.8 2.4 1.6 4.8 2.4 10.4 4 15.2 0 2.4-1.6 4-4 4.8.8 0 0 0 0 0zm-230.4-22.4h-1.6c-1.6-.8-3.2-3.2-2.4-4.8 1.6-4.8 4-9.6 6.4-14.4.8-1.6 3.2-2.4 4.8-1.6 1.6.8 2.4 3.2 1.6 4.8-2.4 4-4 8.8-6.4 13.6.8 1.6-.8 2.4-2.4 2.4zm221.6-7.2c-1.6 0-3.2-.8-3.2-2.4-2.4-4.8-4-8.8-7.2-12.8-.8-1.6-.8-4 1.6-5.6 1.6-.8 4-.8 5.6 1.6 2.4 4.8 5.6 8.8 7.2 13.6.8 1.6 0 4-1.6 4.8-1.6.8-2.4.8-2.4.8zm-207.2-19.2c-.8 0-1.6 0-2.4-.8-1.6-1.6-2.4-4-.8-5.6l9.6-12c1.6-1.6 4-1.6 5.6 0s1.6 4 0 5.6c-3.2 4-6.4 7.2-9.6 11.2 0 .8-1.6 1.6-2.4 1.6zM462 176c-.8 0-2.4-.8-3.2-1.6-3.2-4-6.4-7.2-10.4-11.2-1.6-1.6-1.6-4 0-5.6s4-1.6 5.6 0c4 4 7.2 7.2 10.4 11.2 1.6 1.6.8 4-.8 5.6 0 1.6-.8 1.6-1.6 1.6zm-170.4-16c-.8 0-2.4-.8-3.2-1.6-1.6-1.6-.8-4 .8-5.6 4-3.2 8-6.4 12.8-9.6 1.6-.8 4-.8 5.6.8.8 1.6.8 4-.8 5.6-4 2.4-8 5.6-12 8.8-1.6.8-2.4 1.6-3.2 1.6zm148-4.8c-.8 0-1.6 0-2.4-.8-4-3.2-8-5.6-12.8-8-1.6-.8-2.4-3.2-1.6-5.6.8-1.6 3.2-2.4 5.6-1.6 4.8 2.4 8.8 5.6 13.6 8.8 1.6 1.6 2.4 4 .8 5.6-.8.8-1.6 1.6-3.2 1.6zm-122.4-12c-1.6 0-2.4-.8-3.2-2.4-.8-1.6 0-4 1.6-4.8 4.8-2.4 9.6-4 14.4-5.6 2.4-.8 4 .8 4.8 2.4.8 2.4-.8 4-2.4 4.8-4.8 1.6-9.6 3.2-13.6 5.6h-1.6zm96-3.2h-1.6l-14.4-4.8c-2.4-.8-3.2-2.4-2.4-4.8.8-2.4 2.4-3.2 4.8-2.4 4.8 1.6 10.4 3.2 15.2 4.8 1.6.8 3.2 3.2 2.4 4.8-.8 1.6-2.4 2.4-4 2.4zm-67.2-6.4c-1.6 0-3.2-1.6-4-3.2 0-2.4.8-4 3.2-4.8 4.8-.8 10.4-1.6 15.2-1.6 1.6 0 4 1.6 4 3.2 0-1.6 1.6-3.2 4-3.2 5.6 0 10.4 0 16 .8 2.4 0 3.2 2.4 3.2 4 0 2.4-2.4 3.2-4 3.2-4.8-.8-9.6-.8-14.4-.8-1.6 0-3.2-1.6-4-3.2 0 1.6-1.6 3.2-3.2 3.2-5.6.8-10.4 1.6-16 2.4z"/><path style="fill:#c3d7dd" d="M188.4 268h-8c-2.4 0-4-1.6-3.2-4 0-2.4 2.4-4 4-3.2h14.4c2.4 0 4 1.6 4 3.2 0 2.4-1.6 4-3.2 4h-8zm22.4-2.4c-1.6 0-3.2-1.6-4-3.2 0-2.4.8-4 3.2-4.8 4.8-.8 9.6-2.4 14.4-4 1.6-.8 4 .8 4.8 2.4.8 2.4-.8 4-2.4 4.8-4.8 2.4-9.6 4-16 4.8.8 0 .8 0 0 0zm-45.6 0c-5.6-.8-11.2-2.4-16-4-1.6-.8-3.2-3.2-2.4-4.8s3.2-3.2 4.8-2.4c4.8 1.6 9.6 2.4 14.4 4 2.4 0 3.2 2.4 3.2 4.8 0 1.6-1.6 2.4-4 2.4zm74.4-9.6c-1.6 0-2.4-.8-3.2-2.4s0-4 1.6-4.8c2.4-1.6 5.6-2.4 8-4 1.6-.8 3.2-1.6 4.8-3.2 1.6-.8 4-.8 5.6.8.8 1.6.8 4-.8 5.6-1.6.8-3.2 2.4-4.8 3.2-3.2 1.6-5.6 3.2-8.8 4.8h-2.4zm-103.2 0h-1.6c-4.8-2.4-9.6-4.8-13.6-8-1.6-.8-2.4-3.2-.8-5.6.8-1.6 3.2-2.4 5.6-.8 4 2.4 8.8 4.8 12.8 7.2 1.6.8 2.4 3.2 1.6 4.8-.8 1.6-2.4 2.4-4 2.4zm128.8-16c-.8 0-2.4-.8-3.2-1.6-1.6-1.6-.8-4 .8-5.6 4-3.2 7.2-6.4 10.4-10.4 1.6-1.6 4-1.6 5.6 0s1.6 4 0 5.6c-3.2 4-7.2 7.2-11.2 11.2 0 .8-1.6.8-2.4.8zm-154.4 0c-.8 0-1.6 0-2.4-.8-4-3.2-8-7.2-11.2-11.2-1.6-1.6-1.6-4 0-5.6s4-1.6 5.6 0c3.2 4 7.2 7.2 10.4 10.4 1.6 1.6 1.6 4 .8 5.6-.8.8-1.6 1.6-3.2 1.6zM286 217.6c-.8 0-1.6 0-2.4-.8-1.6-1.6-2.4-3.2-.8-5.6 3.2-4 5.6-8 8-12.8.8-1.6 3.2-2.4 4.8-1.6 1.6.8 2.4 3.2 1.6 4.8-2.4 4.8-5.6 8.8-8 13.6-.8 1.6-1.6 2.4-3.2 2.4zm-195.2 0c-.8 0-2.4-.8-3.2-1.6-2.4-3.2-4-6.4-6.4-9.6-.8-.8-1.6-2.4-1.6-3.2-.8-1.6 0-4 1.6-4.8s4 0 4.8 1.6c.8.8 1.6 2.4 1.6 3.2 1.6 3.2 4 6.4 5.6 9.6 1.6 1.6.8 4-.8 5.6-.8-.8-.8-.8-1.6-.8zm209.6-27.2h-1.6c-1.6-.8-3.2-3.2-2.4-4.8 1.6-4.8 3.2-9.6 4-14.4.8-2.4 2.4-3.2 4.8-3.2 2.4.8 3.2 2.4 3.2 4.8-1.6 4.8-3.2 10.4-4.8 15.2 0 1.6-1.6 2.4-3.2 2.4zm-224 0c-1.6 0-3.2-.8-3.2-2.4-1.6-4.8-3.2-9.6-4.8-15.2-.8-2.4.8-4 2.4-4.8 2.4-.8 4 .8 4.8 2.4.8 4.8 2.4 9.6 4 14.4.8 1.6 0 4-2.4 4.8 0 .8-.8.8-.8.8zm231.2-29.6c-2.4 0-4-2.4-4-4 .8-4 .8-8.8.8-12.8v-3.2c0-2.4 1.6-4.8 4-4.8s4 3.2 4 4.8v2.4c0 4.8 0 9.6-.8 14.4 0 1.6-1.6 3.2-4 3.2zM69.2 160c-1.6 0-3.2-.8-4-3.2-.8-4-.8-8.8-.8-12.8v-3.2c0-2.4 1.6-4.8 4-4.8s4 3.2 4 4.8v2.4c0 4 0 8 .8 12.8 0 2.4-1.6 4-4 4zm238.4-29.6c-1.6 0-3.2-1.6-4-3.2-.8-4.8-1.6-9.6-3.2-14.4-.8-2.4.8-4 2.4-4.8 2.4-.8 4 .8 4.8 2.4 1.6 4.8 2.4 10.4 3.2 15.2.8 3.2-.8 4.8-3.2 4.8zm-238.4 0c-2.4 0-4-2.4-4-4 .8-4.8 1.6-10.4 3.2-15.2.8-2.4 2.4-3.2 4.8-2.4 2.4.8 3.2 2.4 2.4 4.8-1.6 4.8-2.4 9.6-3.2 14.4.8 1.6-.8 2.4-3.2 2.4zm229.6-28.8c-1.6 0-3.2-.8-3.2-2.4-1.6-4.8-4-8.8-6.4-13.6-.8-1.6-.8-3.2.8-4.8-1.6.8-3.2 0-4-1.6-2.4-4-5.6-8-8.8-12-1.6-1.6-.8-4 0-5.6 1.6-1.6 4-.8 5.6 0 3.2 4 6.4 8 9.6 12.8.8 1.6.8 3.2-.8 4.8 1.6-.8 4 0 4.8 1.6l7.2 14.4c.8 1.6 0 4-2.4 4.8-.8 1.6-1.6 1.6-2.4 1.6zm-220.8 0h-1.6c-1.6-.8-3.2-3.2-2.4-4.8 2.4-4.8 4-9.6 7.2-14.4.8-1.6 3.2-2.4 5.6-1.6 1.6.8 2.4 3.2 1.6 5.6-2.4 4-4.8 8.8-6.4 13.6-1.6.8-3.2 1.6-4 1.6zm15.2-26.4c-.8 0-1.6 0-2.4-.8-1.6-1.6-1.6-4-.8-5.6 3.2-4 6.4-8 10.4-12 1.6-1.6 4-1.6 5.6 0s1.6 4 0 5.6c-3.2 3.2-6.4 7.2-9.6 11.2-1.6.8-2.4 1.6-3.2 1.6zm175.2-16.8c-.8 0-1.6 0-2.4-.8-4-3.2-7.2-6.4-11.2-8.8-1.6-1.6-2.4-3.2-.8-5.6 1.6-1.6 3.2-2.4 5.6-.8 4 3.2 8.8 6.4 12 9.6 1.6 1.6 1.6 4 0 5.6-.8 0-1.6.8-3.2.8zM114 53.6c-.8 0-2.4-.8-3.2-1.6-1.6-1.6-.8-4 .8-5.6 4-3.2 8.8-6.4 13.6-8.8 1.6-.8 4-.8 5.6 1.6.8 1.6.8 4-1.6 5.6-4 2.4-8 5.6-12 8-1.6 0-2.4.8-3.2.8zm129.6-12.8c-.8 0-.8 0-1.6-.8-4-2.4-8.8-4-13.6-5.6-1.6-.8-3.2-3.2-2.4-4.8s3.2-3.2 4.8-2.4c4.8 1.6 9.6 4 14.4 6.4 1.6.8 2.4 3.2 1.6 4.8s-1.6 2.4-3.2 2.4zm-103.2-3.2c-1.6 0-3.2-.8-3.2-2.4-.8-1.6 0-4 1.6-4.8 4.8-2.4 9.6-4 14.4-5.6 2.4-.8 4 .8 4.8 2.4.8 2.4 0 4.8-2.4 4.8-4.8 1.6-9.6 3.2-13.6 4.8-.8.8-.8.8-1.6.8zm74.4-7.2h-.8L199.6 28c-2.4 0-4-2.4-3.2-4 0-2.4 2.4-3.2 4-3.2 4.8.8 10.4 1.6 15.2 2.4 2.4.8 3.2 2.4 3.2 4.8-.8 1.6-2.4 2.4-4 2.4zm-45.6-1.6c-1.6 0-3.2-1.6-4-3.2 0-2.4.8-4 3.2-4 4.8-.8 10.4-1.6 16-1.6 1.6 0 4 1.6 4 4s-1.6 4-4 4c-4.8 0-9.6 0-15.2.8.8 0 .8 0 0 0z"/><path style="fill:#c3d7dd" d="M308.4 476h-8c-2.4 0-4-1.6-3.2-4 0-2.4 1.6-4 4-3.2h14.4c2.4 0 4 1.6 4 3.2 0 2.4-1.6 4-3.2 4h-8zm22.4-2.4c-1.6 0-3.2-1.6-4-3.2 0-2.4.8-4 3.2-4.8 4.8-.8 9.6-2.4 14.4-4 1.6-.8 4 .8 4.8 2.4.8 2.4-.8 4-2.4 4.8-4.8 2.4-9.6 4-16 4.8.8 0 .8 0 0 0zm-44.8 0c-.8 0-.8 0 0 0-5.6-.8-11.2-2.4-16-4-1.6-.8-3.2-3.2-2.4-4.8.8-1.6 3.2-3.2 4.8-2.4 4.8 1.6 9.6 2.4 14.4 4 2.4 0 3.2 2.4 3.2 4.8-.8 1.6-2.4 2.4-4 2.4zm74.4-9.6c-1.6 0-2.4-.8-3.2-2.4-.8-1.6 0-4 1.6-4.8 2.4-1.6 5.6-2.4 8-4 1.6-.8 3.2-1.6 4.8-3.2 1.6-.8 4-.8 5.6.8.8 1.6.8 4-.8 5.6-1.6.8-3.2 2.4-4.8 3.2-3.2 1.6-5.6 3.2-8.8 4.8h-2.4zm-104 0h-1.6c-4.8-2.4-9.6-4.8-13.6-8-1.6-.8-2.4-3.2-.8-5.6.8-1.6 3.2-2.4 5.6-.8 4 2.4 8.8 4.8 12.8 7.2 1.6.8 2.4 3.2 1.6 4.8-.8 1.6-2.4 2.4-4 2.4zM386 448c-.8 0-2.4-.8-3.2-1.6-1.6-1.6-.8-4 .8-5.6 4-3.2 7.2-6.4 10.4-10.4 1.6-1.6 4-1.6 5.6 0s1.6 4 0 5.6c-3.2 4-7.2 7.2-11.2 11.2-.8 0-1.6.8-2.4.8zm-155.2 0c-.8 0-1.6 0-2.4-.8-4-3.2-8-7.2-11.2-11.2-1.6-1.6-1.6-4 0-5.6s4-1.6 5.6 0c3.2 4 7.2 7.2 10.4 10.4 1.6 1.6 1.6 4 .8 5.6-.8.8-1.6 1.6-3.2 1.6zM406 425.6c-.8 0-1.6 0-2.4-.8-1.6-1.6-2.4-4-.8-5.6 3.2-4 5.6-8 8-12.8.8-1.6 3.2-2.4 4.8-1.6 1.6.8 2.4 3.2 1.6 4.8-2.4 4.8-5.6 8.8-8 13.6-.8 1.6-1.6 2.4-3.2 2.4zm-195.2 0c-.8 0-2.4-.8-3.2-1.6-2.4-3.2-4-6.4-6.4-9.6-.8-1.6-1.6-2.4-1.6-3.2-.8-1.6 0-4 1.6-4.8s4 0 4.8 1.6c.8.8 1.6 2.4 1.6 3.2 1.6 3.2 4 6.4 5.6 9.6 1.6 1.6.8 4-.8 5.6 0-1.6-.8-.8-1.6-.8zm209.6-27.2h-1.6c-1.6-.8-3.2-3.2-2.4-4.8 1.6-4.8 3.2-9.6 4-14.4.8-2.4 2.4-3.2 4.8-2.4 2.4.8 3.2 2.4 2.4 4.8-1.6 4.8-2.4 10.4-4.8 15.2.8.8-.8 1.6-2.4 1.6zm-224 0c-1.6 0-3.2-.8-3.2-2.4-1.6-4.8-3.2-9.6-4.8-15.2-.8-2.4.8-4 3.2-4.8s4 .8 4.8 3.2c.8 4.8 2.4 9.6 4 14.4.8 1.6 0 4-2.4 4.8h-1.6zm231.2-29.6c-2.4 0-4-2.4-4-4 .8-4 .8-8.8.8-12.8v-3.2c0-2.4 1.6-4.8 4-4.8s4 3.2 4 4.8v2.4c0 4.8 0 9.6-.8 14.4 0 1.6-1.6 3.2-4 3.2zm-238.4 0c-1.6 0-3.2-1.6-4-3.2-.8-4.8-.8-8.8-.8-13.6v-3.2c0-2.4 1.6-4.8 4-4.8s4 3.2 4 4.8v2.4c0 4 0 8.8.8 12.8 0 2.4-1.6 4.8-4 4.8zm238.4-30.4c-1.6 0-3.2-1.6-4-3.2-.8-4.8-1.6-9.6-3.2-14.4-.8-2.4.8-4 2.4-4.8 2.4-.8 4 .8 4.8 2.4 1.6 4.8 2.4 10.4 3.2 15.2.8 3.2-.8 4.8-3.2 4.8zm-238.4 0c-2.4 0-4-2.4-4-4 .8-4.8 1.6-10.4 3.2-15.2.8-2.4 2.4-3.2 4.8-2.4 2.4.8 3.2 2.4 2.4 4.8-1.6 4.8-2.4 9.6-3.2 14.4.8 1.6-.8 2.4-3.2 2.4zm230.4-28.8c-1.6 0-3.2-.8-3.2-2.4-1.6-4.8-4-8.8-6.4-13.6-.8-1.6-.8-3.2.8-4.8-1.6.8-3.2 0-4-1.6-2.4-4-5.6-8-8.8-12-1.6-1.6-.8-4 0-5.6 1.6-1.6 4-1.6 5.6.8 3.2 4 6.4 8 9.6 12.8.8 1.6.8 3.2-.8 4.8 1.6-.8 3.2 0 4.8 1.6l7.2 14.4c.8 1.6 0 4-2.4 4.8-1.6.8-2.4.8-2.4.8zm-221.6 0h-1.6c-1.6-.8-3.2-3.2-2.4-4.8 2.4-4.8 4-9.6 7.2-14.4.8-1.6 3.2-2.4 5.6-1.6 1.6.8 2.4 3.2 1.6 5.6-2.4 4-4.8 8.8-6.4 13.6-1.6 0-3.2 1.6-4 1.6zm15.2-26.4c-.8 0-1.6 0-2.4-.8-1.6-1.6-1.6-4-.8-5.6 3.2-4 6.4-8 10.4-12 1.6-1.6 4-1.6 5.6 0s1.6 4 0 5.6c-3.2 3.2-6.4 7.2-9.6 11.2-1.6.8-2.4 1.6-3.2 1.6zm175.2-16.8c-.8 0-1.6 0-2.4-.8-4-3.2-7.2-6.4-11.2-8.8-1.6-1.6-2.4-3.2-.8-5.6.8-1.6 3.2-2.4 5.6-.8 4 3.2 8.8 6.4 12 9.6 1.6 1.6 1.6 4 0 5.6-.8 0-1.6.8-3.2.8zM234 261.6c-.8 0-2.4-.8-3.2-1.6-1.6-1.6-.8-4 .8-5.6 4-3.2 8.8-6.4 12.8-8.8 1.6-.8 4-.8 5.6 1.6.8 1.6.8 4-1.6 5.6-4 2.4-8 5.6-12 8-.8 0-1.6.8-2.4.8zm129.6-12.8c-.8 0-.8 0-1.6-.8-4-2.4-8.8-4-13.6-5.6-1.6-.8-3.2-3.2-2.4-4.8.8-1.6 3.2-3.2 4.8-2.4 4.8 1.6 9.6 4 14.4 6.4 1.6.8 2.4 3.2 1.6 4.8-.8 1.6-1.6 2.4-3.2 2.4zm-103.2-3.2c-1.6 0-3.2-.8-3.2-2.4-.8-1.6 0-4 1.6-4.8 4.8-2.4 9.6-4 14.4-5.6 2.4-.8 4 .8 4.8 2.4.8 2.4-.8 4-2.4 4.8-4.8 1.6-9.6 3.2-13.6 4.8-.8.8-.8.8-1.6.8zm74.4-7.2h-.8l-14.4-2.4c-2.4 0-4-2.4-3.2-4 0-2.4 2.4-3.2 4-3.2 4.8.8 10.4 1.6 15.2 2.4 2.4.8 3.2 2.4 3.2 4.8-.8 1.6-1.6 2.4-4 2.4zm-44.8-1.6c-1.6 0-3.2-1.6-4-3.2 0-2.4.8-4 3.2-4 4.8-.8 10.4-1.6 16-1.6 1.6 0 4 1.6 4 4s-1.6 4-4 4c-4.8 0-10.4 0-15.2.8z"/><path style="fill:#c3d7dd" d="M188.4 476c-2.4 0-4-1.6-4-4s1.6-4 4-4c4.8 0 9.6 0 14.4-.8 2.4 0 4 .8 4 3.2 0 2.4-1.6 4-3.2 4-4.8 1.6-10.4 1.6-15.2 1.6zm-15.2-.8s-.8 0 0 0c-5.6-.8-11.2-1.6-16-3.2-2.4-.8-3.2-2.4-2.4-4.8s2.4-3.2 4.8-2.4c4.8 1.6 9.6 2.4 14.4 3.2 2.4 0 3.2 2.4 3.2 4-.8 1.6-2.4 3.2-4 3.2zm45.6-3.2c-1.6 0-3.2-.8-4-3.2-.8-2.4.8-4 2.4-4.8 4.8-1.6 9.6-2.4 14.4-4.8 1.6-.8 4 0 4.8 2.4.8 1.6 0 4-2.4 4.8-4.8 1.6-9.6 3.2-15.2 4.8v.8zm-75.2-4.8H142c-4.8-1.6-9.6-4-14.4-6.4-1.6-.8-2.4-3.2-1.6-4.8.8-1.6 3.2-2.4 4.8-1.6 4 2.4 8.8 4.8 13.6 6.4 1.6.8 3.2 3.2 2.4 4.8 0 .8-1.6 1.6-3.2 1.6zm103.2-6.4c-1.6 0-2.4-.8-3.2-1.6-.8-1.6 0-4 1.6-4.8 4-2.4 8.8-4.8 12.8-8 1.6-1.6 4-.8 5.6.8 1.6 1.6.8 4-.8 5.6-4 3.2-8.8 5.6-13.6 8.8-1.6-.8-1.6-.8-2.4-.8zm-129.6-8c-.8 0-1.6 0-2.4-.8-4-3.2-8-6.4-12-10.4-1.6-1.6-1.6-4 0-5.6s4-1.6 5.6 0c3.2 3.2 7.2 6.4 11.2 9.6 1.6 1.6 2.4 4 .8 5.6-.8.8-2.4 1.6-3.2 1.6zm154.4-9.6c-.8 0-2.4 0-2.4-.8-1.6-1.6-1.6-4 0-5.6 3.2-3.2 7.2-7.2 10.4-11.2 1.6-1.6 4-1.6 5.6-.8 1.6 1.6 1.6 4 .8 5.6-3.2 4-7.2 8-10.4 11.2-2.4.8-3.2 1.6-4 1.6zm-176.8-12c-.8 0-2.4-.8-3.2-1.6-3.2-4-6.4-8-8.8-12.8-.8-1.6-.8-4 1.6-5.6 1.6-.8 4-.8 5.6 1.6 2.4 4 5.6 8 8.8 12 1.6 1.6.8 4-.8 5.6-1.6.8-2.4.8-3.2.8zm195.2-12c-.8 0-1.6 0-1.6-.8-1.6-.8-2.4-3.2-1.6-5.6.8-.8 1.6-2.4 1.6-3.2l4.8-9.6c.8-1.6 3.2-2.4 4.8-1.6 1.6.8 2.4 3.2 1.6 4.8-1.6 3.2-3.2 7.2-5.6 10.4-.8.8-1.6 2.4-2.4 3.2 1.6 1.6 0 2.4-1.6 2.4zM78.8 405.6c-1.6 0-3.2-.8-3.2-2.4-2.4-4.8-4-9.6-5.6-14.4-.8-2.4.8-4 2.4-4.8 2.4-.8 4 .8 4.8 2.4 1.6 4.8 3.2 9.6 5.6 13.6.8 1.6 0 4-1.6 4.8-.8.8-1.6.8-2.4.8zm224-14.4h-.8c-2.4-.8-3.2-2.4-2.4-4.8 1.6-4.8 2.4-9.6 3.2-14.4 0-2.4 2.4-3.2 4-3.2 2.4 0 3.2 2.4 3.2 4-.8 4.8-2.4 10.4-4 15.2 0 2.4-1.6 3.2-3.2 3.2zM70 376.8c-1.6 0-3.2-1.6-4-3.2-.8-5.6-1.6-10.4-1.6-16 0-2.4 1.6-4 4-4 1.6 0 4 1.6 4 4 0 4.8.8 9.6 1.6 14.4 0 2.4-1.6 4-4 4.8.8 0 0 0 0 0zm238.4-15.2c-2.4 0-4-1.6-4-4v-15.2c0-2.4 1.6-4 3.2-4 2.4 0 4 1.6 4 3.2v15.2c.8 3.2-.8 4.8-3.2 4.8zm-240-15.2c-2.4 0-4-2.4-4-4 .8-4.8.8-10.4 2.4-15.2.8-2.4 2.4-3.2 4.8-3.2 2.4.8 3.2 2.4 3.2 4.8l-2.4 14.4c0 1.6-1.6 3.2-4 3.2zM306 331.2c-1.6 0-3.2-1.6-4-3.2-.8-4.8-2.4-9.6-4-14.4-.8-1.6 0-4 2.4-4.8 1.6-.8 4 0 4.8 2.4 1.6 4.8 3.2 10.4 4 15.2.8 2.4-.8 4-3.2 4.8.8 0 0 0 0 0zM74.8 316h-1.6c-1.6-.8-3.2-3.2-2.4-4.8 1.6-4.8 4-9.6 6.4-14.4.8-1.6 2.4-2.4 4-1.6-1.6-.8-1.6-3.2-.8-4.8 2.4-4.8 5.6-8.8 8.8-12.8 1.6-1.6 4-2.4 5.6-.8s2.4 4 .8 5.6c-3.2 4-5.6 8-8 12-.8 1.6-2.4 2.4-4 1.6 1.6.8 1.6 3.2.8 4.8-2.4 4.8-4 8.8-5.6 13.6-.8.8-2.4 1.6-4 1.6zm221.6-13.6c-1.6 0-2.4-.8-3.2-2.4-2.4-4.8-4.8-8.8-7.2-12.8-.8-1.6-.8-4 .8-5.6 1.6-.8 4-.8 5.6.8 3.2 4 5.6 8.8 8 13.6.8 1.6 0 4-1.6 4.8-1.6 1.6-2.4 1.6-2.4 1.6zm-16.8-25.6c-.8 0-2.4-.8-3.2-1.6-3.2-4-6.4-7.2-10.4-10.4-1.6-1.6-1.6-4 0-5.6s4-1.6 5.6 0c4 3.2 8 7.2 11.2 11.2 1.6 1.6 1.6 4 0 5.6-1.6.8-2.4.8-3.2.8zm-176.8-5.6c-.8 0-1.6 0-2.4-.8-1.6-1.6-1.6-4 0-5.6 4-4 8-7.2 12-10.4 1.6-1.6 4-.8 5.6.8 1.6 1.6.8 4-.8 5.6-4 3.2-7.2 6.4-11.2 9.6-1.6.8-2.4.8-3.2.8zm153.6-14.4c-.8 0-1.6 0-2.4-.8-2.4-1.6-4.8-3.2-8-4.8l-4.8-2.4c-1.6-.8-2.4-3.2-1.6-4.8.8-1.6 3.2-2.4 4.8-1.6l4.8 2.4c3.2 1.6 5.6 3.2 8 5.6 1.6 1.6 2.4 3.2.8 5.6.8 0 0 .8-1.6.8zm-129.6-4c-1.6 0-2.4-.8-3.2-1.6-.8-1.6-.8-4 1.6-5.6 4.8-2.4 8.8-4.8 13.6-7.2 1.6-.8 4 0 4.8 1.6s0 4-1.6 4.8c-4.8 1.6-8.8 4-12.8 6.4-.8 1.6-1.6 1.6-2.4 1.6zm102.4-9.6h-1.6c-4.8-1.6-9.6-3.2-14.4-4-2.4-.8-3.2-2.4-3.2-4.8.8-2.4 2.4-3.2 4.8-3.2 4.8.8 10.4 2.4 15.2 4.8 1.6.8 3.2 3.2 2.4 4.8 0 .8-1.6 2.4-3.2 2.4zm-74.4-2.4c-1.6 0-3.2-.8-4-2.4-.8-1.6.8-4 2.4-4.8 4.8-1.6 10.4-2.4 15.2-3.2 2.4 0 4 .8 4 3.2s-.8 4-3.2 4c-4.8.8-9.6 1.6-14.4 3.2.8 0 0 0 0 0zm44.8-4.8c-5.6-.8-10.4-.8-15.2-.8-2.4 0-4-1.6-4-4s1.6-4 4-4c4.8 0 10.4 0 16 .8 2.4 0 4 2.4 3.2 4 0 2.4-1.6 4-4 4z"/><path style="fill:#c3d7dd" d="M308.4 268c-1.6 0-4 0-4-2.4s1.6-1.6 4-1.6c4.8 0 9.6-2.4 14.4-2.4 2.4 0 4 0 4 2.4s-1.6 3.2-3.2 4h-15.2zm-15.2-.8s-.8 0 0 0c-5.6-.8-11.2-1.6-16-3.2-2.4-.8-3.2-2.4-2.4-4.8.8-2.4 2.4-3.2 4.8-2.4 4.8 1.6 9.6 2.4 14.4 3.2 2.4 0 3.2 2.4 3.2 4-.8 1.6-2.4 3.2-4 3.2zm45.6-3.2c-1.6 0-3.2-.8-4-3.2-.8-2.4.8-4 2.4-4.8 4.8-1.6 9.6-2.4 14.4-4.8 1.6-.8 4 0 4.8 2.4.8 1.6 0 4-2.4 4.8-4.8 1.6-9.6 3.2-15.2 4.8v.8zm-75.2-4.8H262c-4.8-1.6-9.6-4-14.4-6.4-1.6-.8-2.4-3.2-1.6-4.8.8-1.6 3.2-2.4 4.8-1.6 4 2.4 8.8 4.8 13.6 6.4 1.6.8 3.2 3.2 2.4 4.8 0 .8-1.6 1.6-3.2 1.6zm103.2-6.4c-1.6 0-2.4-.8-3.2-1.6-.8-1.6 0-4 1.6-4.8 4-2.4 8.8-4.8 12.8-8 1.6-1.6 4-.8 5.6.8s.8 4-.8 5.6c-4 3.2-8.8 5.6-13.6 8.8-.8-.8-1.6-.8-2.4-.8zm-129.6-8c-.8 0-1.6 0-2.4-.8-4-3.2-8-6.4-12-10.4-1.6-1.6-1.6-4 0-5.6s4-1.6 5.6 0c3.2 3.2 7.2 6.4 11.2 9.6 1.6 1.6 2.4 4 .8 5.6-.8.8-2.4 1.6-3.2 1.6zm154.4-9.6c-.8 0-2.4 0-2.4-.8-1.6-1.6-1.6-4 0-5.6 3.2-3.2 7.2-7.2 10.4-11.2 1.6-1.6 4-1.6 5.6-.8 1.6 1.6 1.6 4 .8 5.6-3.2 4-7.2 8-10.4 11.2-2.4.8-3.2 1.6-4 1.6zm-176.8-12c-.8 0-2.4-.8-3.2-1.6-3.2-4-6.4-8-8.8-12.8-.8-1.6-.8-4 1.6-5.6 1.6-.8 4-.8 5.6 1.6 2.4 4 5.6 8 8.8 12 1.6 1.6.8 4-.8 5.6-1.6.8-2.4.8-3.2.8zm196-12c-.8 0-1.6 0-1.6-.8-1.6-.8-2.4-3.2-1.6-5.6.8-.8 1.6-2.4 1.6-3.2l4.8-9.6c.8-1.6 3.2-2.4 4.8-1.6 1.6.8 2.4 3.2 1.6 4.8-1.6 3.2-3.2 7.2-5.6 10.4-.8.8-1.6 2.4-2.4 3.2.8 1.6-.8 2.4-1.6 2.4zm-212-13.6c-1.6 0-3.2-.8-3.2-2.4-2.4-4.8-4-9.6-5.6-14.4-.8-1.6.8-4 2.4-4.8 2.4-.8 4 .8 4.8 2.4 1.6 4.8 3.2 9.6 5.6 13.6.8 1.6 0 4-1.6 4.8-.8.8-1.6.8-2.4.8zm224-13.6h-.8c-2.4-.8-3.2-2.4-2.4-4.8 1.6-4.8 2.4-9.6 3.2-14.4 0-2.4 2.4-3.2 4-3.2 2.4 0 3.2 2.4 3.2 4.8-.8 4.8-2.4 10.4-4 15.2 0 .8-1.6 2.4-3.2 2.4zM190 168.8c-1.6 0-3.2-1.6-4-3.2-.8-4.8-1.6-10.4-1.6-16 0-2.4 1.6-4 4-4s4 1.6 4 4c0 4.8.8 9.6 1.6 14.4 0 2.4-.8 4-4 4.8.8 0 0 0 0 0zm238.4-15.2c-2.4 0-4-1.6-4-4v-15.2c0-2.4 1.6-4 3.2-4 2.4 0 4 1.6 4 3.2v15.2c.8 3.2-.8 4.8-3.2 4.8zm-240-15.2c-2.4 0-4-2.4-4-4 .8-4.8.8-10.4 2.4-15.2.8-2.4 2.4-3.2 4.8-3.2 2.4.8 3.2 2.4 3.2 4.8l-2.4 14.4c0 1.6-1.6 3.2-4 3.2zM426 123.2c-1.6 0-3.2-1.6-4-3.2-.8-4.8-2.4-9.6-4-14.4-.8-1.6 0-4 2.4-4.8 1.6-.8 4 0 4.8 2.4 1.6 4.8 3.2 10.4 4 15.2.8 2.4 0 4.8-3.2 4.8.8 0 0 0 0 0zM194.8 108h-1.6c-1.6-.8-3.2-3.2-2.4-4.8 1.6-4.8 4-9.6 6.4-14.4.8-1.6 2.4-2.4 4.8-1.6-1.6-.8-1.6-3.2-.8-4.8 2.4-4.8 5.6-8.8 8.8-12.8 1.6-1.6 4-2.4 5.6-.8s1.6 4 .8 5.6c-3.2 4-5.6 8-8 12-.8 1.6-2.4 2.4-4 1.6 1.6.8 1.6 3.2.8 4.8-2.4 4-4 8.8-5.6 13.6-1.6.8-3.2 1.6-4.8 1.6zm221.6-13.6c-1.6 0-2.4-.8-3.2-2.4-2.4-4-4.8-8-8-12-.8-1.6-.8-4 .8-5.6 1.6-.8 4-.8 5.6.8 3.2 4 5.6 8.8 8 13.6.8 1.6 0 4-1.6 4.8-.8.8-1.6.8-1.6.8zm-16.8-25.6c-.8 0-2.4-.8-3.2-1.6-3.2-4-6.4-7.2-10.4-10.4-1.6-.8-1.6-3.2 0-4.8s4-1.6 5.6 0c4 3.2 8 7.2 11.2 11.2 1.6 1.6 1.6 4 0 5.6h-3.2zm-176.8-5.6c-.8 0-1.6 0-2.4-.8-1.6-1.6-1.6-4 0-5.6 4-4 8-7.2 12-10.4 1.6-1.6 4-.8 5.6.8s.8 4-.8 5.6c-4.8 3.2-8 6.4-12 9.6 0 .8-1.6.8-2.4.8zm153.6-14.4c-.8 0-1.6 0-2.4-.8-2.4-1.6-4.8-3.2-8-4.8l-4.8-2.4c-1.6-.8-2.4-3.2-.8-5.6.8-1.6 3.2-2.4 4.8-1.6 1.6.8 3.2 1.6 4.8 3.2 3.2 1.6 5.6 3.2 8 5.6 1.6 1.6 2.4 3.2.8 5.6 0 0-.8.8-2.4.8zm-129.6-4c-1.6 0-2.4-.8-3.2-1.6-.8-1.6-.8-4 1.6-5.6 4.8-2.4 8.8-4.8 13.6-7.2 1.6-.8 4 0 4.8 1.6s0 4-1.6 4.8c-4.8 1.6-8.8 4-12.8 6.4-.8 1.6-1.6 1.6-2.4 1.6zm102.4-9.6h-1.6c-4.8-1.6-9.6-3.2-14.4-4-2.4-.8-3.2-2.4-3.2-4.8.8-2.4 2.4-3.2 4.8-3.2 4.8.8 10.4 2.4 15.2 4.8 1.6.8 3.2 3.2 2.4 4.8 0 .8-1.6 2.4-3.2 2.4zm-74.4-2.4c-1.6 0-3.2-.8-4-2.4-.8-2.4.8-4 2.4-4.8 4.8-1.6 10.4-2.4 15.2-3.2 2.4 0 4 .8 4 3.2s-.8 4-3.2 4c-4.8.8-9.6 1.6-14.4 3.2.8 0 0 0 0 0zm44.8-4.8c-5.6-.8-10.4-.8-15.2-.8-2.4 0-4-1.6-4-4s1.6-4 4-4c5.6 0 10.4 0 16 .8 2.4 0 4 2.4 3.2 4 0 2.4-1.6 4-4 4z"/><path style="fill:#92f0f7" d="M144.4 316c-22.4 0-44-5.6-64-16.8C19.6 263.2-1.2 184.8 34 124c22.4-39.2 65.6-64 110.4-64 22.4 0 44 5.6 64 16.8 60.8 35.2 81.6 113.6 46.4 174.4-22.4 40-64.8 64.8-110.4 64.8zm0-240.8c-40 0-77.6 21.6-97.6 56-31.2 54.4-12 123.2 41.6 154.4 16.8 9.6 36.8 15.2 56 15.2 40 0 77.6-21.6 97.6-56 31.2-53.6 12.8-122.4-40.8-153.6-17.6-10.4-36.8-16-56.8-16z"/><path style="fill:#92f0f7" d="M352.4 436c-22.4 0-44-5.6-64-16.8-29.6-16.8-50.4-44.8-59.2-77.6s-4-67.2 12.8-96.8c22.4-39.2 64.8-64 110.4-64 22.4 0 44 5.6 64 16.8 60.8 35.2 81.6 113.6 46.4 174.4-22.4 39.2-64.8 64-110.4 64zm0-240.8c-40 0-77.6 21.6-97.6 56-15.2 26.4-19.2 56-11.2 85.6 8 29.6 26.4 53.6 52.8 68 16.8 9.6 36.8 15.2 56 15.2 40 0 77.6-21.6 97.6-56 31.2-53.6 12.8-122.4-40.8-153.6-17.6-9.6-36.8-15.2-56.8-15.2z"/><path style="fill:#92f0f7" d="M248.4 256c-70.4 0-128-57.6-128-128S178 0 248.4 0s128 57.6 128 128-57.6 128-128 128zm0-240.8C186 15.2 135.6 65.6 135.6 128S186 240.8 248.4 240.8 361.2 190.4 361.2 128 310.8 15.2 248.4 15.2z"/><path style="fill:#92f0f7" d="M248.4 496c-70.4 0-128-57.6-128-128s57.6-128 128-128 128 57.6 128 128-57.6 128-128 128zm0-240.8c-62.4 0-112.8 50.4-112.8 112.8S186 480.8 248.4 480.8 361.2 430.4 361.2 368c0-61.6-50.4-112.8-112.8-112.8z"/><path style="fill:#92f0f7" d="M144.4 436c-45.6 0-88-24.8-110.4-64-35.2-60.8-14.4-139.2 46.4-174.4 19.2-11.2 41.6-16.8 64-16.8 45.6 0 88 24.8 110.4 64 35.2 60.8 14.4 139.2-46.4 174.4-19.2 10.4-41.6 16.8-64 16.8zm0-240.8c-20 0-39.2 5.6-56 15.2-53.6 31.2-72 100-40.8 153.6 20 34.4 57.6 56 97.6 56 20 0 39.2-5.6 56-15.2 53.6-31.2 72-100 40.8-153.6-20-34.4-57.6-56-97.6-56z"/><path style="fill:#92f0f7" d="M352.4 316c-45.6 0-88-24.8-110.4-64-16.8-29.6-21.6-64-12.8-96.8s29.6-60.8 59.2-77.6c19.2-11.2 41.6-16.8 64-16.8 45.6 0 88 24.8 110.4 64 16.8 29.6 21.6 64 12.8 96.8s-29.6 60.8-59.2 77.6c-19.2 10.4-41.6 16.8-64 16.8zm0-240.8c-20 0-39.2 5.6-56 15.2-26.4 15.2-44.8 39.2-52.8 68-8 28.8-4 59.2 11.2 85.6 20 34.4 57.6 56 97.6 56 20 0 39.2-5.6 56-15.2 26.4-15.2 44.8-39.2 52.8-68s4-59.2-11.2-85.6c-20-34.4-57.6-56-97.6-56z"/></g></svg>