<svg width="43" height="43" fill="none" xmlns="http://www.w3.org/2000/svg"><g clip-path="url('#clip0_10_183')"><path d="M21.5 43C33.374 43 43 33.374 43 21.5S33.374 0 21.5 0 0 9.626 0 21.5 9.626 43 21.5 43Z" fill="url('#paint0_linear_10_183')"/><path fill-rule="evenodd" clip-rule="evenodd" d="M9.732 21.273c6.268-2.73 10.447-4.531 12.538-5.4 5.971-2.484 7.212-2.916 8.02-2.93.178-.003.576.041.834.25.217.177.277.415.306.582.028.168.064.549.036.847-.324 3.4-1.724 11.65-2.436 15.457-.302 1.611-.895 2.151-1.47 2.204-1.248.115-2.196-.825-3.405-1.617-1.893-1.24-2.962-2.013-4.799-3.223-2.122-1.4-.746-2.168.463-3.425.317-.328 5.818-5.332 5.925-5.786.013-.057.025-.268-.1-.38-.126-.112-.312-.074-.445-.043-.19.043-3.213 2.04-9.07 5.994-.857.59-1.635.876-2.33.861-.769-.017-2.245-.434-3.343-.79-1.346-.438-2.417-.67-2.323-1.413.048-.387.581-.783 1.6-1.188Z" fill="#fff"/></g><defs><linearGradient id="paint0_linear_10_183" x1="21.5" y1="0" x2="21.5" y2="42.681" gradientUnits="userSpaceOnUse"><stop stop-color="#2AABEE"/><stop offset="1" stop-color="#229ED9"/></linearGradient><clipPath id="clip0_10_183"><path fill="#fff" d="M0 0h43v43H0z"/></clipPath></defs></svg>