<svg width="43" height="43" viewBox="0 0 43 43" fill="none" xmlns="http://www.w3.org/2000/svg">
<g clip-path="url('#clip0_10_183')">
<path d="M21.5 43C33.3741 43 43 33.3741 43 21.5C43 9.62588 33.3741 0 21.5 0C9.62588 0 0 9.62588 0 21.5C0 33.3741 9.62588 43 21.5 43Z" fill="url('#paint0_linear_10_183')"></path>
<path fill-rule="evenodd" clip-rule="evenodd" d="M9.73208 21.273C15.9998 18.5423 20.1792 16.742 22.2704 15.8722C28.2412 13.3888 29.4818 12.9574 30.2905 12.9431C30.4684 12.94 30.866 12.9841 31.1236 13.1931C31.3411 13.3696 31.401 13.608 31.4296 13.7754C31.4583 13.9427 31.4939 14.3239 31.4656 14.6217C31.142 18.0214 29.742 26.2715 29.0297 30.0791C28.7283 31.6903 28.1349 32.2305 27.5604 32.2834C26.3119 32.3983 25.3638 31.4583 24.1545 30.6656C22.2622 29.4251 21.1932 28.653 19.3564 27.4426C17.2337 26.0437 18.6098 25.2749 19.8195 24.0184C20.1361 23.6896 25.6372 18.6859 25.7437 18.232C25.757 18.1752 25.7694 17.9636 25.6436 17.8519C25.5179 17.7401 25.3324 17.7784 25.1985 17.8087C25.0087 17.8518 21.9858 19.8499 16.1297 23.8029C15.2716 24.3921 14.4944 24.6792 13.7981 24.6641C13.0304 24.6475 11.5537 24.2301 10.456 23.8733C9.10955 23.4356 8.03943 23.2042 8.13261 22.4609C8.18115 22.0737 8.7143 21.6778 9.73208 21.273Z" fill="white"></path>
</g>
<defs>
<linearGradient id="paint0_linear_10_183" x1="21.5" y1="0" x2="21.5" y2="42.6811" gradientUnits="userSpaceOnUse">
<stop stop-color="#2AABEE"></stop>
<stop offset="1" stop-color="#229ED9"></stop>
</linearGradient>
<clipPath id="clip0_10_183">
<rect width="43" height="43" fill="white"></rect>
</clipPath>
</defs>
</svg>
